<svg version="1.1" id="Layer_1" xmlns="http://www.w3.org/2000/svg" xmlns:xlink="http://www.w3.org/1999/xlink" x="0px" y="0px"
	 viewBox="0 0 21.6 18" style="enable-background:new 0 0 21.6 18;" xml:space="preserve">
<path id="twitter" class="st0" d="M21.6,2.1c-0.2,0.4-0.5,0.8-0.8,1.2c-0.4,0.5-0.9,0.9-1.5,1.2c0,0.1,0,0.2,0,0.4
	c0,1.7-0.3,3.4-0.9,5c-1,2.7-2.8,5-5.3,6.5c-2.5,1.3-5.4,1.9-8.2,1.5C3.2,17.8,1.4,17.1,0,16c2.4,0.2,4.7-0.4,6.6-1.9
	C4.7,14,3,12.8,2.4,11c0.3,0.1,0.6,0.1,0.9,0c0.4,0,0.7-0.1,1.1-0.1c-1.3-0.3-2.4-1.2-3-2.3C1.1,7.9,0.9,7.1,0.9,6.3
	c0.6,0.4,1.3,0.6,2,0.6c-1-0.8-1.7-1.9-2-3.2c-0.1-1,0.1-2,0.5-2.9c1.4,1.6,3.2,3,5.1,3.9c1.3,0.5,2.6,0.8,4,0.8
	c-0.2-1.2,0-2.4,0.5-3.4c0.6-1,1.6-1.7,2.8-2c1.5-0.4,3.1,0.1,4.1,1.3c1-0.1,2-0.5,2.9-1.1c-0.3,1.1-1,2-2,2.6
	C19.9,2.7,20.8,2.5,21.6,2.1L21.6,2.1z"/>
</svg>
