<?xml version="1.0" encoding="UTF-8"?><svg id="Layer_2" xmlns="http://www.w3.org/2000/svg" viewBox="0 0 146.3 197.39"><g id="Layer_1-2"><g><rect x="35.92" y="1.5" width="78.2" height="130.33" rx="39.1" ry="39.1" fill="none" stroke="#000" stroke-miterlimit="10" stroke-width="3"/><rect x="35.92" y="1.5" width="78.2" height="130.33" rx="39.1" ry="39.1" fill="none" stroke="#000" stroke-miterlimit="10" stroke-width="3"/><circle cx="75.02" cy="33.14" r="7.44"/><g><path d="M0,194.18c0-.97,.79-1.76,1.74-1.76,.37,0,.71,.11,1,.32,1.21,.84,2.66,1.39,4.42,1.39,2.05,0,3.05-.97,3.05-1.97,0-1.32-1.53-1.76-3.55-2.24-2.87-.66-6.55-1.45-6.55-5.37,0-2.92,2.53-5.29,6.92-5.29,2,0,3.76,.47,5.45,1.45,.5,.26,.87,.84,.87,1.47,0,.95-.79,1.74-1.71,1.74-.34,0-.66-.1-.9-.26-1.34-.76-2.74-1.13-3.97-1.13-1.95,0-2.84,.74-2.84,1.79,0,1.18,1.47,1.55,3.5,2.03,2.9,.66,6.58,1.53,6.58,5.42,0,3.21-2.29,5.63-7.03,5.63-2.58,0-4.61-.66-6.19-1.76-.47-.32-.79-.84-.79-1.45Z"/><path d="M38.83,184.05c1.68,0,2.92,.47,3.87,1.18,.4,.26,.66,.74,.66,1.24,0,.82-.68,1.5-1.5,1.5-.34,0-.63-.11-.87-.29-.58-.45-1.24-.66-2-.66-2.03,0-3.45,1.47-3.45,3.68s1.42,3.71,3.45,3.71c.76,0,1.42-.21,1.97-.66,.24-.18,.55-.29,.87-.29,.84,0,1.53,.66,1.53,1.5,0,.5-.26,.97-.66,1.24-.95,.71-2.18,1.18-3.87,1.18-3.92,0-6.74-2.76-6.74-6.69s2.82-6.66,6.74-6.66Z"/><path d="M70,185.63c0,.82-.53,1.5-1.58,1.66-.87,.11-2.18,.58-2.74,1.4v6.9c0,.92-.76,1.68-1.66,1.68-.95,0-1.68-.76-1.68-1.68v-9.69c0-.95,.74-1.71,1.66-1.71s1.71,.74,1.71,1.68l-.03,.24c.55-.76,1.32-1.47,2.08-1.76,.32-.13,.55-.21,.84-.21,.9,0,1.4,.68,1.4,1.5Z"/><path d="M87.46,190.71c0-3.61,2.53-6.66,6.71-6.66s6.74,3.05,6.74,6.66-2.53,6.69-6.74,6.69-6.71-3.05-6.71-6.69Zm9.98,0c0-1.97-1.18-3.68-3.26-3.68s-3.24,1.71-3.24,3.68,1.16,3.71,3.24,3.71,3.26-1.71,3.26-3.71Z"/><path d="M119.84,195.58v-14.56c0-.92,.74-1.68,1.68-1.68,.89,0,1.66,.76,1.66,1.68v14.56c0,.92-.76,1.68-1.66,1.68-.95,0-1.68-.76-1.68-1.68Z"/><path d="M142.96,195.58v-14.56c0-.92,.74-1.68,1.68-1.68,.89,0,1.66,.76,1.66,1.68v14.56c0,.92-.76,1.68-1.66,1.68-.95,0-1.68-.76-1.68-1.68Z"/></g></g></g></svg>