<svg version="1.1" id="Layer_1" xmlns="http://www.w3.org/2000/svg" xmlns:xlink="http://www.w3.org/1999/xlink" x="0px" y="0px"
	 viewBox="0 0 81.2 133.3" enable-background="new 0 0 81.2 133.3" xml:space="preserve">
<path class="bottom" fill="none" stroke="#000000" stroke-width="3" stroke-miterlimit="10" d="M40.6,1.5L40.6,1.5c21.6,0,39.1,17.5,39.1,39.1v52.1
	c0,21.6-17.5,39.1-39.1,39.1l0,0c-21.6,0-39.1-17.5-39.1-39.1V40.6C1.5,19,19,1.5,40.6,1.5z"/>
<circle class="dot" cx="40.6" cy="33.1" r="7.4"/>
<g>
	<path class="top" fill="none" stroke="#red" stroke-width="3" stroke-miterlimit="10" d="M40.6,131.8L40.6,131.8
		c-21.6,0-39.1-17.5-39.1-39.1V40.6C1.5,19,19,1.5,40.6,1.5l0,0"/>
	<path class="top" fill="none" stroke="#red" stroke-width="3" stroke-miterlimit="10" d="M40.6,1.5c21.6,0,39.1,17.5,39.1,39.1v52.1
		c0,21.6-17.5,39.1-39.1,39.1"/>
</g>
</svg>
