<svg xmlns="http://www.w3.org/2000/svg" width="23.262" height="23.262" viewBox="0 0 23.262 23.262">
  <g id="Group_64" data-name="Group 64" transform="translate(-11098 608)">
    <path id="Path_45" data-name="Path 45" d="M0,0H23.262V23.262H0Z" transform="translate(11098 -608)" fill="#f5623f"/>
    <g id="Group_63" data-name="Group 63" transform="translate(138.75 -88.75)">
      <path id="Path_34" data-name="Path 34" d="M65.66,64.437a.751.751,0,0,1-.712-.987l3-9a.75.75,0,1,1,1.423.475l-3,9a.75.75,0,0,1-.712.513" transform="translate(10903.841 -566.187)" fill="#fff"/>
      <path id="Path_35" data-name="Path 35" d="M49.2,64.442a.751.751,0,0,1-.712-.987l3-9a.75.75,0,0,1,1.423.475l-3,9a.75.75,0,0,1-.712.513" transform="translate(10915.796 -566.192)" fill="#fff"/>
      <path id="Path_36" data-name="Path 36" d="M82.117,64.442a.751.751,0,0,1-.712-.987l3-9a.75.75,0,0,1,1.423.475l-3,9a.75.75,0,0,1-.712.513" transform="translate(10891.884 -566.192)" fill="#fff"/>
    </g>
  </g>
</svg>
